# xmcd CD database file
#
# Track frame offsets:
#	150
#	13933
#	27517
#	39729
#	54271
#	68279
#	82025
#	96228
#	108646
#	122016
#	135748
#	149696
#	164474
#	177877
#	191303
#	204199
#	216814
#	228011
#
# Disc length: 3223 seconds
#
# Revision: 0
# Processed by: cddbd v1.5.2PL0 Copyright (c) Steve Scherf et al.
# Submitted via: CDex 1.51
#
DISCID=f80c9512
DTITLE=Various Artist - Cities of Jazz - Chicago
DYEAR=2006
DGENRE=Jazz
TTITLE0=Bix Beiderbecke - Wa da da (Ev'rybody's doin' it now)
TTITLE1=J.C. Cobb and His Grains of Corn - Shake that Jellyroll
TTITLE2=Chicago Rhythm Kings - Jazz Me Blues
TTITLE3=Chicago Rhythm Kings - I found a new baby
TTITLE4=Eddie South and his Orchestra - My! Oh, my!
TTITLE5=Eddie Condon Quatret - Oh baby
TTITLE6=Mckenzie and Condon Chicagoans - Nobody's Sweetheart
TTITLE7=Bud Freeman and his Summa Cum Laude - The Eel
TTITLE8=Chicago Rhythm Kings - There'll be some changes made
TTITLE9=Frankie Trumbauer and his Orchestra - Singin' the blues
TTITLE10=Mckenzie and Condon Chicagoans - Liza
TTITLE11=Joe Wingy Manone and His Club Royale Orchestra - Trying to stop my crying
TTITLE12=Miff Mole's Little Molers - Shim me sha wabble
TTITLE13=Bud Freeman and his Summa Cum Laude - Crazeology
TTITLE14=Benny Goodman Trio - That's a plenty
TTITLE15=Omer Simeon Trio - Beau koo Jack
TTITLE16=Carmichael's Collegians - Walkin' the dog
TTITLE17=Red Nichols and His 5 Pennies - Riverboat shuffle
EXTD=YEAR: 2006
EXTT0=
EXTT1=
EXTT2=
EXTT3=
EXTT4=
EXTT5=
EXTT6=
EXTT7=
EXTT8=
EXTT9=
EXTT10=
EXTT11=
EXTT12=
EXTT13=
EXTT14=
EXTT15=
EXTT16=
EXTT17=
PLAYORDER=
